<svg xmlns="http://www.w3.org/2000/svg" width="102" height="104" fill="none"><path stroke="#63869F" stroke-linecap="round" stroke-linejoin="round" stroke-width="8" d="M51 31.255v21.111L66.667 68.2M98 52.365a47.939 47.939 0 0 1-3.578 18.178 47.536 47.536 0 0 1-10.188 15.41A46.97 46.97 0 0 1 68.986 96.25 46.57 46.57 0 0 1 51 99.865a46.57 46.57 0 0 1-17.986-3.615 46.97 46.97 0 0 1-15.248-10.297 47.537 47.537 0 0 1-10.188-15.41A47.94 47.94 0 0 1 4 52.366c0-12.598 4.952-24.68 13.766-33.587C26.58 9.87 38.535 4.866 51 4.866c12.465 0 24.42 5.005 33.234 13.913C93.048 27.687 98 39.769 98 52.366Z"/></svg>