<svg xmlns="http://www.w3.org/2000/svg" width="71" height="84" fill="none"><path fill="#63869F" d="m5.156 83.469-4.112-4.857L42.169 30.05c-1.436-3.7-1.763-7.535-.98-11.505.784-3.97 2.644-7.689 5.582-11.158 2.937-3.391 6.495-5.569 10.673-6.532 4.178-.964 7.605.134 10.281 3.295 2.742 3.237 3.672 7.284 2.79 12.14-.88 4.857-2.855 9.135-5.923 12.835-2.677 3.237-5.663 5.357-8.96 6.36-3.296 1.001-6.38.77-9.253-.694l-6.56 7.746 30.55 36.075-4.113 4.857-30.55-36.075-30.55 36.075Zm12.24-40.585L5.744 29.124c-3.33-3.93-5.06-8.594-5.19-13.99C.424 9.738 1.925 4.96 5.058.797l23.99 28.328-11.652 13.76Z"/></svg>