<svg xmlns="http://www.w3.org/2000/svg" width="25" height="25" fill="none"><path fill="#fff" d="M17.057 3.385a4.571 4.571 0 0 1 4.558 4.558v9.114a4.572 4.572 0 0 1-4.558 4.558H7.943a4.571 4.571 0 0 1-4.558-4.558V7.943a4.571 4.571 0 0 1 4.558-4.558h9.114Zm0-1.822H7.943c-3.51 0-6.38 2.87-6.38 6.38v9.114c0 3.51 2.87 6.38 6.38 6.38h9.114c3.51 0 6.38-2.87 6.38-6.38V7.943c0-3.51-2.87-6.38-6.38-6.38Z"/><path fill="#fff" d="M18.424 7.943a1.367 1.367 0 1 1 0-2.734 1.367 1.367 0 0 1 0 2.734Zm-5.924.911a3.646 3.646 0 1 1 0 7.292 3.646 3.646 0 0 1 0-7.292Zm0-1.823a5.469 5.469 0 1 0 0 10.938 5.469 5.469 0 0 0 0-10.938Z"/></svg>